<svg xmlns="http://www.w3.org/2000/svg" viewBox="0 0 800 600">
  <defs>
    <linearGradient id="bg" x1="0" y1="0" x2="1" y2="1">
      <stop offset="0" stop-color="#0a5c9e"/><stop offset="1" stop-color="#063b66"/>
    </linearGradient>
    <linearGradient id="sh" x1="0" y1="0" x2="0" y2="1">
      <stop offset="0" stop-color="#ffffff" stop-opacity=".18"/><stop offset="1" stop-color="#ffffff" stop-opacity="0"/>
    </linearGradient>
  </defs>
  <rect width="800" height="600" fill="url(#bg)"/>
  <circle cx="120" cy="90" r="150" fill="#ffffff" opacity=".05"/>
  <circle cx="700" cy="520" r="190" fill="#38bdf8" opacity=".08"/>
  <g transform="translate(400 300)">
    <circle r="120" fill="#0e7ac4" stroke="#bfe3ff" stroke-width="10"/>
    <circle r="34" fill="#bfe3ff"/>
    <g fill="#8fd0ff">
      <path d="M0-104 a104 104 0 0 1 74 30 L30 -18 a34 34 0 0 0 -30 -16z"/>
      <path d="M104 0 a104 104 0 0 1 -30 74 L18 30 a34 34 0 0 0 16 -30z" transform="rotate(30)"/>
      <path d="M0-104 a104 104 0 0 1 74 30 L30 -18 a34 34 0 0 0 -30 -16z" transform="rotate(140)"/>
      <path d="M0-104 a104 104 0 0 1 74 30 L30 -18 a34 34 0 0 0 -30 -16z" transform="rotate(250)"/>
    </g>
    <rect x="110" y="-26" width="120" height="52" rx="10" fill="#0e7ac4" stroke="#bfe3ff" stroke-width="8"/>
    <rect x="222" y="-40" width="26" height="80" rx="8" fill="#bfe3ff"/>
    <rect x="-70" y="118" width="140" height="30" rx="8" fill="#083d68"/>
    <rect x="-100" y="142" width="200" height="20" rx="8" fill="#062e4f"/>
  </g>
  <rect width="800" height="600" fill="url(#sh)"/>
</svg>
